<svg width="426" height="360" viewBox="0 0 426 360" fill="none" xmlns="http://www.w3.org/2000/svg">
<path d="M120.738 203.224L188.736 199.935C188.736 199.935 248.552 175.951 276.394 224.02C304.236 272.089 224.634 332.411 224.634 332.411L196.645 326.477L212.716 266.198C212.716 266.198 144.02 283.236 120.738 203.224Z" fill="#00ADB5"/>
<path d="M120.738 203.224L120.704 202.526C120.49 202.536 120.293 202.644 120.169 202.818C120.044 202.992 120.007 203.214 120.066 203.42L120.738 203.224ZM188.736 199.935L188.77 200.634L188.888 200.628L188.997 200.585L188.736 199.935ZM224.634 332.411L224.489 333.095L224.802 333.162L225.056 332.969L224.634 332.411ZM196.645 326.477L195.969 326.297L195.779 327.008L196.5 327.161L196.645 326.477ZM212.716 266.198L213.392 266.378L213.697 265.234L212.548 265.519L212.716 266.198ZM120.772 203.923L188.77 200.634L188.703 199.237L120.704 202.526L120.772 203.923ZM224.779 331.727L196.79 325.793L196.5 327.161L224.489 333.095L224.779 331.727ZM197.32 326.657L213.392 266.378L212.04 266.018L195.969 326.297L197.32 326.657ZM212.716 266.198C212.548 265.519 212.548 265.519 212.548 265.519C212.547 265.519 212.547 265.519 212.546 265.52C212.545 265.52 212.542 265.521 212.538 265.521C212.531 265.523 212.52 265.526 212.504 265.53C212.473 265.537 212.426 265.548 212.363 265.562C212.237 265.591 212.047 265.633 211.797 265.685C211.298 265.788 210.559 265.93 209.608 266.083C207.705 266.389 204.956 266.739 201.583 266.911C194.834 267.256 185.599 266.888 175.65 264.043C155.796 258.367 132.983 242.803 121.41 203.029L120.066 203.42C131.775 243.657 154.951 259.58 175.265 265.388C185.4 268.285 194.795 268.658 201.654 268.309C205.085 268.134 207.885 267.777 209.83 267.464C210.803 267.308 211.562 267.162 212.081 267.055C212.34 267.001 212.539 266.957 212.674 266.926C212.741 266.911 212.793 266.899 212.828 266.89C212.846 266.886 212.859 266.883 212.869 266.881C212.874 266.88 212.877 266.879 212.88 266.878C212.881 266.878 212.882 266.877 212.883 266.877C212.884 266.877 212.885 266.877 212.716 266.198ZM188.736 199.935C188.997 200.585 188.997 200.585 188.997 200.585C188.997 200.584 188.998 200.584 188.998 200.584C189 200.583 189.002 200.582 189.005 200.581C189.012 200.579 189.022 200.575 189.036 200.569C189.063 200.558 189.105 200.542 189.16 200.521C189.271 200.478 189.438 200.415 189.657 200.334C190.095 200.173 190.744 199.941 191.582 199.662C193.257 199.105 195.684 198.362 198.686 197.618C204.691 196.13 212.979 194.645 222.124 194.651C240.402 194.664 262.033 200.622 275.789 224.371L276.999 223.669C262.913 199.349 240.715 193.265 222.125 193.252C212.835 193.246 204.429 194.753 198.349 196.26C195.308 197.014 192.845 197.768 191.14 198.335C190.288 198.619 189.624 198.855 189.173 199.022C188.947 199.105 188.774 199.17 188.657 199.215C188.599 199.238 188.554 199.255 188.524 199.267C188.509 199.273 188.497 199.278 188.489 199.281C188.485 199.283 188.482 199.284 188.48 199.285C188.479 199.285 188.478 199.286 188.477 199.286C188.477 199.286 188.476 199.286 188.736 199.935ZM275.789 224.371C282.632 236.186 282.888 248.764 279.38 261.043C275.867 273.338 268.585 285.303 260.403 295.812C252.225 306.315 243.175 315.328 236.166 321.718C232.662 324.912 229.67 327.448 227.556 329.185C226.499 330.053 225.661 330.722 225.088 331.172C224.802 331.398 224.582 331.569 224.434 331.683C224.36 331.74 224.304 331.783 224.267 331.812C224.248 331.826 224.234 331.837 224.225 331.844C224.22 331.847 224.217 331.85 224.215 331.851C224.213 331.852 224.213 331.853 224.212 331.853C224.212 331.854 224.211 331.854 224.634 332.411C225.056 332.969 225.057 332.968 225.058 332.968C225.058 332.967 225.059 332.966 225.061 332.965C225.063 332.963 225.067 332.961 225.072 332.957C225.082 332.949 225.097 332.938 225.116 332.923C225.155 332.893 225.213 332.849 225.289 332.79C225.44 332.673 225.664 332.5 225.954 332.272C226.533 331.815 227.379 331.141 228.444 330.266C230.574 328.516 233.584 325.964 237.108 322.752C244.154 316.329 253.264 307.257 261.507 296.671C269.745 286.091 277.143 273.963 280.725 261.427C284.311 248.876 284.077 235.889 276.999 223.669L275.789 224.371Z" fill="black"/>
<path d="M225.916 331.464L197.951 322.596L187.173 346.367C187.173 346.367 211.116 354.631 227.202 355.224L219.366 346.407L225.916 331.464Z" fill="#EEEEEE" stroke="black" stroke-width="1.39887" stroke-linejoin="round"/>
<path d="M117.975 205.589L207.716 204.83C207.716 204.83 270.829 217.866 267.496 273.316C264.164 328.766 164.489 335.099 164.489 335.099L144.431 314.695L193.952 267.266C193.952 267.266 126.448 282.534 117.975 205.589Z" fill="#00ADB5" stroke="black" stroke-width="1.39887"/>
<path d="M166.081 335.018L147.664 312.181L125.551 326.048C125.551 326.048 140.948 346.159 154.032 355.537L152.368 343.858L166.081 335.018Z" fill="#EEEEEE" stroke="black" stroke-width="1.39887" stroke-linejoin="round"/>
<path fill-rule="evenodd" clip-rule="evenodd" d="M114.375 107.366C115.665 105.575 116.676 103.551 117.303 101.269C122.039 84.0388 107.387 72.8576 95.4629 69.9568C83.5383 67.056 43.9312 98.3654 87.2807 119.886C87.3977 119.88 87.5165 119.873 87.6371 119.865C94.5831 125.361 96.8051 132.615 99.4712 141.318C100.559 144.868 101.72 148.659 103.306 152.671L123.128 137.015C123.57 125.346 120.413 116.031 114.375 107.366Z" fill="#F5B9AB"/>
<path d="M117.303 101.269L117.978 101.454L117.978 101.454L117.303 101.269ZM114.375 107.366L113.807 106.958C113.634 107.199 113.631 107.523 113.801 107.766L114.375 107.366ZM95.4629 69.9568L95.6282 69.2772L95.4629 69.9568ZM87.2807 119.886L86.9697 120.513C87.078 120.567 87.1984 120.591 87.3191 120.585L87.2807 119.886ZM87.6371 119.865L88.0711 119.316C87.9352 119.209 87.7641 119.156 87.5911 119.167L87.6371 119.865ZM99.4712 141.318L100.14 141.113L99.4712 141.318ZM103.306 152.671L102.655 152.928C102.737 153.133 102.911 153.288 103.124 153.346C103.338 153.403 103.566 153.357 103.739 153.219L103.306 152.671ZM123.128 137.015L123.562 137.564C123.722 137.437 123.819 137.246 123.827 137.042L123.128 137.015ZM116.629 101.083C116.025 103.28 115.051 105.23 113.807 106.958L114.943 107.775C116.278 105.921 117.327 103.822 117.978 101.454L116.629 101.083ZM95.2976 70.6364C101.142 72.0581 107.649 75.512 112.1 80.695C116.53 85.8534 118.927 92.7207 116.629 101.083L117.978 101.454C120.415 92.5868 117.854 85.2485 113.161 79.7837C108.489 74.3434 101.708 70.7563 95.6282 69.2772L95.2976 70.6364ZM87.5918 119.26C76.8403 113.922 71.3609 108.04 69.2499 102.354C67.1458 96.6868 68.3352 91.0677 71.2469 86.118C74.1641 81.1589 78.7865 76.9218 83.4209 74.1058C85.7356 72.6994 88.0352 71.6585 90.1045 71.0584C92.1869 70.4544 93.9745 70.3145 95.2976 70.6364L95.6282 69.2772C93.9702 68.8738 91.9116 69.0778 89.7148 69.7149C87.505 70.3558 85.0926 71.4532 82.6945 72.9104C77.9035 75.8216 73.0976 80.213 70.0412 85.4087C66.9792 90.6139 65.6496 96.676 67.9385 102.841C70.2207 108.988 76.0464 115.09 86.9697 120.513L87.5918 119.26ZM87.5911 119.167C87.4731 119.175 87.3568 119.182 87.2424 119.188L87.3191 120.585C87.4387 120.578 87.56 120.571 87.6831 120.563L87.5911 119.167ZM100.14 141.113C97.4829 132.439 95.2129 124.968 88.0711 119.316L87.2031 120.413C93.9533 125.755 96.1274 132.79 98.8024 141.523L100.14 141.113ZM103.956 152.413C102.382 148.431 101.228 144.666 100.14 141.113L98.8024 141.523C99.8892 145.071 101.058 148.887 102.655 152.928L103.956 152.413ZM122.695 136.466L102.872 152.122L103.739 153.219L123.562 137.564L122.695 136.466ZM113.801 107.766C119.759 116.315 122.865 125.482 122.429 136.989L123.827 137.042C124.275 125.21 121.068 115.747 114.949 106.967L113.801 107.766Z" fill="black"/>
<path d="M69.2294 101.366C69.052 108.119 80.1789 116.936 84.6748 117.977C55.1064 120.656 50.4302 84.5378 60.3866 84.9368C54.7117 74.2652 63.7319 63.0084 77.2179 66.1299C86.0103 37.1444 105.263 63.2664 101.156 72.0204C97.0494 80.7744 86.0635 82.5628 83.1616 87.6099C80.2597 92.6569 86.2456 107.213 80.0368 101.096C73.8281 94.9789 69.4511 92.9254 69.2294 101.366Z" fill="#00ADB5" stroke="black" stroke-width="1.39887"/>
<path d="M197.864 196.474C210.62 167.084 169.652 137.101 160.615 130.944C159.454 130.152 158.275 129.457 157.046 128.774C133.529 115.713 100.434 114.004 88.3872 138.056C67.3292 180.098 119.829 223.99 139.22 251.947L197.864 196.474Z" fill="#EEEEEE"/>
<path d="M160.615 130.944L161.009 130.366L160.615 130.944ZM197.864 196.474L198.345 196.982L198.449 196.884L198.506 196.753L197.864 196.474ZM139.22 251.947L138.645 252.346C138.761 252.513 138.945 252.622 139.147 252.643C139.35 252.664 139.552 252.595 139.7 252.455L139.22 251.947ZM88.3872 138.056L87.7619 137.743L88.3872 138.056ZM157.046 128.774L157.386 128.163L157.046 128.774ZM160.221 131.522C164.721 134.588 177.157 143.579 186.871 155.44C196.609 167.332 203.435 181.882 197.222 196.196L198.506 196.753C205.049 181.676 197.769 166.54 187.953 154.554C178.112 142.537 165.546 133.457 161.009 130.366L160.221 131.522ZM197.383 195.966L138.739 251.439L139.7 252.455L198.345 196.982L197.383 195.966ZM139.794 251.548C134.923 244.525 127.976 236.505 120.671 227.819C113.352 219.117 105.654 209.723 99.2203 199.9C86.3368 180.227 78.6596 159.039 89.0126 138.369L87.7619 137.743C77.0568 159.115 85.1006 180.893 98.0501 200.666C104.533 210.566 112.28 220.015 119.6 228.719C126.934 237.44 133.821 245.391 138.645 252.346L139.794 251.548ZM156.707 129.386C157.925 130.063 159.085 130.747 160.221 131.522L161.009 130.366C159.824 129.558 158.624 128.851 157.386 128.163L156.707 129.386ZM157.386 128.163C145.53 121.578 131.242 117.842 118.364 118.8C105.468 119.76 93.9236 125.441 87.7619 137.743L89.0126 138.369C94.8981 126.619 105.924 121.129 118.468 120.195C131.028 119.261 145.046 122.91 156.707 129.386L157.386 128.163Z" fill="black"/>
<path d="M213.68 181.269L193.339 157.321L163.777 180.347C159.091 146.601 121.546 119.393 107.019 123.16C67.9654 133.288 112.243 220.939 140.491 233.622C168.739 246.306 213.68 181.269 213.68 181.269Z" fill="#EEEEEE" stroke="black" stroke-width="1.39887"/>
<path d="M195.103 155.384L192.521 157.96L213.19 181.973L217.409 177.775C224.484 170.737 223.345 158.983 215.049 153.435C208.786 149.247 200.437 150.062 195.103 155.384Z" fill="#F5B9AB" stroke="black" stroke-width="1.39887" stroke-linejoin="round"/>
<path fill-rule="evenodd" clip-rule="evenodd" d="M103.935 254.665C103.606 254.579 103.274 254.822 103.274 255.163L103.433 346.339H85.1881C84.9108 346.339 84.6859 346.564 84.6859 346.841L84.6859 357.941C84.6859 358.218 84.9108 358.443 85.1881 358.443H137.094C137.372 358.443 137.596 358.218 137.596 357.941V346.841C137.596 346.564 137.372 346.339 137.094 346.339H117.279V254.688C117.279 254.389 117.019 254.156 116.722 254.19C115.727 254.304 114.794 254.421 113.91 254.532C109.848 255.044 106.855 255.421 103.935 254.665Z" fill="#00ADB5"/>
<path d="M103.274 255.163L102.575 255.164V255.164L103.274 255.163ZM103.935 254.665L104.111 253.988V253.988L103.935 254.665ZM103.433 346.339V347.039H104.134L104.133 346.338L103.433 346.339ZM84.6859 346.841H85.3853H84.6859ZM84.6859 357.941H83.9865H84.6859ZM117.279 346.339H116.579V347.039H117.279V346.339ZM116.722 254.19L116.642 253.495L116.642 253.495L116.722 254.19ZM113.91 254.532L113.823 253.838L113.91 254.532ZM103.974 255.161C103.974 255.23 103.938 255.286 103.899 255.315C103.862 255.342 103.811 255.355 103.76 255.342L104.111 253.988C103.366 253.795 102.573 254.336 102.575 255.164L103.974 255.161ZM104.133 346.338L103.974 255.161L102.575 255.164L102.734 346.34L104.133 346.338ZM85.1881 347.039H103.433V345.64H85.1881V347.039ZM85.3853 346.841C85.3853 346.95 85.297 347.039 85.1881 347.039V345.64C84.5245 345.64 83.9865 346.178 83.9865 346.841H85.3853ZM85.3853 357.941L85.3853 346.841H83.9865L83.9865 357.941H85.3853ZM85.1881 357.743C85.297 357.743 85.3853 357.832 85.3853 357.941H83.9865C83.9865 358.604 84.5245 359.142 85.1881 359.142V357.743ZM137.094 357.743H85.1881V359.142H137.094V357.743ZM136.897 357.941C136.897 357.832 136.985 357.743 137.094 357.743V359.142C137.758 359.142 138.296 358.604 138.296 357.941H136.897ZM136.897 346.841V357.941H138.296V346.841H136.897ZM137.094 347.039C136.985 347.039 136.897 346.95 136.897 346.841H138.296C138.296 346.178 137.758 345.64 137.094 345.64V347.039ZM117.279 347.039H137.094V345.64H117.279V347.039ZM116.579 254.688V346.339H117.978V254.688H116.579ZM116.801 254.885C116.682 254.898 116.579 254.805 116.579 254.688H117.978C117.978 253.972 117.356 253.413 116.642 253.495L116.801 254.885ZM113.998 255.226C114.881 255.115 115.811 254.998 116.801 254.885L116.642 253.495C115.643 253.609 114.706 253.727 113.823 253.838L113.998 255.226ZM103.76 255.342C106.835 256.138 109.971 255.733 113.998 255.226L113.823 253.838C109.725 254.354 106.875 254.704 104.111 253.988L103.76 255.342Z" fill="black"/>
<path d="M82.3887 163.789C94.3219 192.232 71.9097 202.653 72.1709 221.561C72.5323 247.727 115.206 272.975 141.912 218.303" stroke="black" stroke-width="1.39887"/>
<rect x="34.3704" y="108.916" width="32.5071" height="105.129" rx="15.8191" transform="rotate(-22.7603 34.3704 108.916)" fill="#00ADB5" stroke="black" stroke-width="1.39887"/>
<rect x="328.189" y="216.309" width="15.5619" height="142.132" rx="0.502194" fill="#00ADB5" stroke="black" stroke-width="1.39887"/>
<rect x="211.858" y="215.664" width="52.107" height="112.515" rx="24.5617" transform="rotate(88.7489 211.858 215.664)" fill="#00ADB5" stroke="black" stroke-width="1.39887"/>
<rect x="423.967" y="189.052" width="32.5071" height="176.822" rx="15.8191" transform="rotate(88.7489 423.967 189.052)" fill="#00ADB5" stroke="black" stroke-width="1.39887"/>
<rect x="398.425" y="103.903" width="82.9969" height="15.5619" rx="2.00878" transform="rotate(105 398.425 103.903)" fill="#00ADB5" stroke="black" stroke-width="1.39887"/>
<rect x="297.245" y="175.956" width="82.9969" height="15.5619" rx="2.00878" fill="#EEEEEE" stroke="black" stroke-width="1.39887"/>
</svg>
